<?xml version="1.0" encoding="UTF-8"?>
<svg xmlns="http://www.w3.org/2000/svg" xmlns:xlink="http://www.w3.org/1999/xlink" width="57.49pt" height="92.923pt" viewBox="0 0 57.49 92.923" version="1.1">
<defs>
<clipPath id="clip1">
  <path d="M 0 0 L 57.488281 0 L 57.488281 92.921875 L 0 92.921875 Z M 0 0 "/>
</clipPath>
</defs>
<g id="surface1">
<g clip-path="url(#clip1)" clip-rule="nonzero">
<path style="fill:none;stroke-width:0.79701;stroke-linecap:butt;stroke-linejoin:miter;stroke:rgb(0%,0%,0%);stroke-opacity:1;stroke-miterlimit:10;" d="M 0.0004375 0.0005625 L 0.0004375 48.723219 C 0.0004375 53.125563 2.238719 59.49275 5.004344 62.945875 L 23.344188 85.871656 C 26.105906 89.328688 30.586375 89.328688 33.352 85.871656 L 51.691844 62.945875 C 54.453562 59.49275 56.691844 53.125563 56.691844 48.723219 L 56.691844 7.969313 C 56.691844 3.566969 54.172312 2.524 51.059031 5.637281 L 5.637156 51.059156 C 2.523875 54.168531 3.566844 56.691969 7.969188 56.691969 L 48.723094 56.691969 C 53.125437 56.691969 54.172312 54.168531 51.059031 51.059156 L 5.637156 5.637281 C 2.523875 2.524 3.566844 0.0005625 7.969188 0.0005625 L 56.691844 0.0005625 " transform="matrix(1,0,0,-1,0.398,92.524)"/>
</g>
</g>
</svg>
