<?xml version="1.0" encoding="utf-8" standalone="no"?>
<!DOCTYPE svg PUBLIC "-//W3C//DTD SVG 1.1//EN"
  "http://www.w3.org/Graphics/SVG/1.1/DTD/svg11.dtd">
<svg xmlns:xlink="http://www.w3.org/1999/xlink" width="449.960938pt" height="211.07625pt" viewBox="0 0 449.960938 211.07625" xmlns="http://www.w3.org/2000/svg" version="1.1">
 <metadata>
  <rdf:RDF xmlns:dc="http://purl.org/dc/elements/1.1/" xmlns:cc="http://creativecommons.org/ns#" xmlns:rdf="http://www.w3.org/1999/02/22-rdf-syntax-ns#">
   <cc:Work>
    <dc:type rdf:resource="http://purl.org/dc/dcmitype/StillImage"/>
    <dc:date>2023-04-03T00:51:40.080608</dc:date>
    <dc:format>image/svg+xml</dc:format>
    <dc:creator>
     <cc:Agent>
      <dc:title>Matplotlib v3.5.1, https://matplotlib.org/</dc:title>
     </cc:Agent>
    </dc:creator>
   </cc:Work>
  </rdf:RDF>
 </metadata>
 <defs>
  <style type="text/css">*{stroke-linejoin: round; stroke-linecap: butt}</style>
 </defs>
 <g id="figure_1">
  <g id="patch_1">
   <path d="M 0 211.07625 
L 449.960938 211.07625 
L 449.960938 0 
L 0 0 
z
" style="fill: #ffffff"/>
  </g>
  <g id="axes_1">
   <g id="patch_2">
    <path d="M 52.160938 173.52 
L 442.760938 173.52 
L 442.760938 7.2 
L 52.160938 7.2 
z
" style="fill: #ffffff"/>
   </g>
   <g id="matplotlib.axis_1">
    <g id="xtick_1">
     <g id="line2d_1">
      <path d="M 69.915483 173.52 
L 69.915483 7.2 
" clip-path="url(#p25d6de55bd)" style="fill: none; stroke: #b0b0b0; stroke-width: 0.8; stroke-linecap: square"/>
     </g>
     <g id="line2d_2">
      <defs>
       <path id="m87ff64f756" d="M 0 0 
L 0 3.5 
" style="stroke: #000000; stroke-width: 0.8"/>
      </defs>
      <g>
       <use xlink:href="#m87ff64f756" x="69.915483" y="173.52" style="stroke: #000000; stroke-width: 0.8"/>
      </g>
     </g>
     <g id="text_1">
      <!-- 0 -->
      <g transform="translate(66.734233 188.118438)scale(0.1 -0.1)">
       <defs>
        <path id="DejaVuSans-30" d="M 2034 4250 
Q 1547 4250 1301 3770 
Q 1056 3291 1056 2328 
Q 1056 1369 1301 889 
Q 1547 409 2034 409 
Q 2525 409 2770 889 
Q 3016 1369 3016 2328 
Q 3016 3291 2770 3770 
Q 2525 4250 2034 4250 
z
M 2034 4750 
Q 2819 4750 3233 4129 
Q 3647 3509 3647 2328 
Q 3647 1150 3233 529 
Q 2819 -91 2034 -91 
Q 1250 -91 836 529 
Q 422 1150 422 2328 
Q 422 3509 836 4129 
Q 1250 4750 2034 4750 
z
" transform="scale(0.015625)"/>
       </defs>
       <use xlink:href="#DejaVuSans-30"/>
      </g>
     </g>
    </g>
    <g id="xtick_2">
     <g id="line2d_3">
      <path d="M 114.524894 173.52 
L 114.524894 7.2 
" clip-path="url(#p25d6de55bd)" style="fill: none; stroke: #b0b0b0; stroke-width: 0.8; stroke-linecap: square"/>
     </g>
     <g id="line2d_4">
      <g>
       <use xlink:href="#m87ff64f756" x="114.524894" y="173.52" style="stroke: #000000; stroke-width: 0.8"/>
      </g>
     </g>
     <g id="text_2">
      <!-- 25 -->
      <g transform="translate(108.162394 188.118438)scale(0.1 -0.1)">
       <defs>
        <path id="DejaVuSans-32" d="M 1228 531 
L 3431 531 
L 3431 0 
L 469 0 
L 469 531 
Q 828 903 1448 1529 
Q 2069 2156 2228 2338 
Q 2531 2678 2651 2914 
Q 2772 3150 2772 3378 
Q 2772 3750 2511 3984 
Q 2250 4219 1831 4219 
Q 1534 4219 1204 4116 
Q 875 4013 500 3803 
L 500 4441 
Q 881 4594 1212 4672 
Q 1544 4750 1819 4750 
Q 2544 4750 2975 4387 
Q 3406 4025 3406 3419 
Q 3406 3131 3298 2873 
Q 3191 2616 2906 2266 
Q 2828 2175 2409 1742 
Q 1991 1309 1228 531 
z
" transform="scale(0.015625)"/>
        <path id="DejaVuSans-35" d="M 691 4666 
L 3169 4666 
L 3169 4134 
L 1269 4134 
L 1269 2991 
Q 1406 3038 1543 3061 
Q 1681 3084 1819 3084 
Q 2600 3084 3056 2656 
Q 3513 2228 3513 1497 
Q 3513 744 3044 326 
Q 2575 -91 1722 -91 
Q 1428 -91 1123 -41 
Q 819 9 494 109 
L 494 744 
Q 775 591 1075 516 
Q 1375 441 1709 441 
Q 2250 441 2565 725 
Q 2881 1009 2881 1497 
Q 2881 1984 2565 2268 
Q 2250 2553 1709 2553 
Q 1456 2553 1204 2497 
Q 953 2441 691 2322 
L 691 4666 
z
" transform="scale(0.015625)"/>
       </defs>
       <use xlink:href="#DejaVuSans-32"/>
       <use xlink:href="#DejaVuSans-35" x="63.623047"/>
      </g>
     </g>
    </g>
    <g id="xtick_3">
     <g id="line2d_5">
      <path d="M 159.134304 173.52 
L 159.134304 7.2 
" clip-path="url(#p25d6de55bd)" style="fill: none; stroke: #b0b0b0; stroke-width: 0.8; stroke-linecap: square"/>
     </g>
     <g id="line2d_6">
      <g>
       <use xlink:href="#m87ff64f756" x="159.134304" y="173.52" style="stroke: #000000; stroke-width: 0.8"/>
      </g>
     </g>
     <g id="text_3">
      <!-- 50 -->
      <g transform="translate(152.771804 188.118438)scale(0.1 -0.1)">
       <use xlink:href="#DejaVuSans-35"/>
       <use xlink:href="#DejaVuSans-30" x="63.623047"/>
      </g>
     </g>
    </g>
    <g id="xtick_4">
     <g id="line2d_7">
      <path d="M 203.743715 173.52 
L 203.743715 7.2 
" clip-path="url(#p25d6de55bd)" style="fill: none; stroke: #b0b0b0; stroke-width: 0.8; stroke-linecap: square"/>
     </g>
     <g id="line2d_8">
      <g>
       <use xlink:href="#m87ff64f756" x="203.743715" y="173.52" style="stroke: #000000; stroke-width: 0.8"/>
      </g>
     </g>
     <g id="text_4">
      <!-- 75 -->
      <g transform="translate(197.381215 188.118438)scale(0.1 -0.1)">
       <defs>
        <path id="DejaVuSans-37" d="M 525 4666 
L 3525 4666 
L 3525 4397 
L 1831 0 
L 1172 0 
L 2766 4134 
L 525 4134 
L 525 4666 
z
" transform="scale(0.015625)"/>
       </defs>
       <use xlink:href="#DejaVuSans-37"/>
       <use xlink:href="#DejaVuSans-35" x="63.623047"/>
      </g>
     </g>
    </g>
    <g id="xtick_5">
     <g id="line2d_9">
      <path d="M 248.353126 173.52 
L 248.353126 7.2 
" clip-path="url(#p25d6de55bd)" style="fill: none; stroke: #b0b0b0; stroke-width: 0.8; stroke-linecap: square"/>
     </g>
     <g id="line2d_10">
      <g>
       <use xlink:href="#m87ff64f756" x="248.353126" y="173.52" style="stroke: #000000; stroke-width: 0.8"/>
      </g>
     </g>
     <g id="text_5">
      <!-- 100 -->
      <g transform="translate(238.809376 188.118438)scale(0.1 -0.1)">
       <defs>
        <path id="DejaVuSans-31" d="M 794 531 
L 1825 531 
L 1825 4091 
L 703 3866 
L 703 4441 
L 1819 4666 
L 2450 4666 
L 2450 531 
L 3481 531 
L 3481 0 
L 794 0 
L 794 531 
z
" transform="scale(0.015625)"/>
       </defs>
       <use xlink:href="#DejaVuSans-31"/>
       <use xlink:href="#DejaVuSans-30" x="63.623047"/>
       <use xlink:href="#DejaVuSans-30" x="127.246094"/>
      </g>
     </g>
    </g>
    <g id="xtick_6">
     <g id="line2d_11">
      <path d="M 292.962536 173.52 
L 292.962536 7.2 
" clip-path="url(#p25d6de55bd)" style="fill: none; stroke: #b0b0b0; stroke-width: 0.8; stroke-linecap: square"/>
     </g>
     <g id="line2d_12">
      <g>
       <use xlink:href="#m87ff64f756" x="292.962536" y="173.52" style="stroke: #000000; stroke-width: 0.8"/>
      </g>
     </g>
     <g id="text_6">
      <!-- 125 -->
      <g transform="translate(283.418786 188.118438)scale(0.1 -0.1)">
       <use xlink:href="#DejaVuSans-31"/>
       <use xlink:href="#DejaVuSans-32" x="63.623047"/>
       <use xlink:href="#DejaVuSans-35" x="127.246094"/>
      </g>
     </g>
    </g>
    <g id="xtick_7">
     <g id="line2d_13">
      <path d="M 337.571947 173.52 
L 337.571947 7.2 
" clip-path="url(#p25d6de55bd)" style="fill: none; stroke: #b0b0b0; stroke-width: 0.8; stroke-linecap: square"/>
     </g>
     <g id="line2d_14">
      <g>
       <use xlink:href="#m87ff64f756" x="337.571947" y="173.52" style="stroke: #000000; stroke-width: 0.8"/>
      </g>
     </g>
     <g id="text_7">
      <!-- 150 -->
      <g transform="translate(328.028197 188.118438)scale(0.1 -0.1)">
       <use xlink:href="#DejaVuSans-31"/>
       <use xlink:href="#DejaVuSans-35" x="63.623047"/>
       <use xlink:href="#DejaVuSans-30" x="127.246094"/>
      </g>
     </g>
    </g>
    <g id="xtick_8">
     <g id="line2d_15">
      <path d="M 382.181358 173.52 
L 382.181358 7.2 
" clip-path="url(#p25d6de55bd)" style="fill: none; stroke: #b0b0b0; stroke-width: 0.8; stroke-linecap: square"/>
     </g>
     <g id="line2d_16">
      <g>
       <use xlink:href="#m87ff64f756" x="382.181358" y="173.52" style="stroke: #000000; stroke-width: 0.8"/>
      </g>
     </g>
     <g id="text_8">
      <!-- 175 -->
      <g transform="translate(372.637608 188.118438)scale(0.1 -0.1)">
       <use xlink:href="#DejaVuSans-31"/>
       <use xlink:href="#DejaVuSans-37" x="63.623047"/>
       <use xlink:href="#DejaVuSans-35" x="127.246094"/>
      </g>
     </g>
    </g>
    <g id="xtick_9">
     <g id="line2d_17">
      <path d="M 426.790768 173.52 
L 426.790768 7.2 
" clip-path="url(#p25d6de55bd)" style="fill: none; stroke: #b0b0b0; stroke-width: 0.8; stroke-linecap: square"/>
     </g>
     <g id="line2d_18">
      <g>
       <use xlink:href="#m87ff64f756" x="426.790768" y="173.52" style="stroke: #000000; stroke-width: 0.8"/>
      </g>
     </g>
     <g id="text_9">
      <!-- 200 -->
      <g transform="translate(417.247018 188.118438)scale(0.1 -0.1)">
       <use xlink:href="#DejaVuSans-32"/>
       <use xlink:href="#DejaVuSans-30" x="63.623047"/>
       <use xlink:href="#DejaVuSans-30" x="127.246094"/>
      </g>
     </g>
    </g>
    <g id="text_10">
     <!-- Time -->
     <g transform="translate(235.227344 201.796563)scale(0.1 -0.1)">
      <defs>
       <path id="DejaVuSans-54" d="M -19 4666 
L 3928 4666 
L 3928 4134 
L 2272 4134 
L 2272 0 
L 1638 0 
L 1638 4134 
L -19 4134 
L -19 4666 
z
" transform="scale(0.015625)"/>
       <path id="DejaVuSans-69" d="M 603 3500 
L 1178 3500 
L 1178 0 
L 603 0 
L 603 3500 
z
M 603 4863 
L 1178 4863 
L 1178 4134 
L 603 4134 
L 603 4863 
z
" transform="scale(0.015625)"/>
       <path id="DejaVuSans-6d" d="M 3328 2828 
Q 3544 3216 3844 3400 
Q 4144 3584 4550 3584 
Q 5097 3584 5394 3201 
Q 5691 2819 5691 2113 
L 5691 0 
L 5113 0 
L 5113 2094 
Q 5113 2597 4934 2840 
Q 4756 3084 4391 3084 
Q 3944 3084 3684 2787 
Q 3425 2491 3425 1978 
L 3425 0 
L 2847 0 
L 2847 2094 
Q 2847 2600 2669 2842 
Q 2491 3084 2119 3084 
Q 1678 3084 1418 2786 
Q 1159 2488 1159 1978 
L 1159 0 
L 581 0 
L 581 3500 
L 1159 3500 
L 1159 2956 
Q 1356 3278 1631 3431 
Q 1906 3584 2284 3584 
Q 2666 3584 2933 3390 
Q 3200 3197 3328 2828 
z
" transform="scale(0.015625)"/>
       <path id="DejaVuSans-65" d="M 3597 1894 
L 3597 1613 
L 953 1613 
Q 991 1019 1311 708 
Q 1631 397 2203 397 
Q 2534 397 2845 478 
Q 3156 559 3463 722 
L 3463 178 
Q 3153 47 2828 -22 
Q 2503 -91 2169 -91 
Q 1331 -91 842 396 
Q 353 884 353 1716 
Q 353 2575 817 3079 
Q 1281 3584 2069 3584 
Q 2775 3584 3186 3129 
Q 3597 2675 3597 1894 
z
M 3022 2063 
Q 3016 2534 2758 2815 
Q 2500 3097 2075 3097 
Q 1594 3097 1305 2825 
Q 1016 2553 972 2059 
L 3022 2063 
z
" transform="scale(0.015625)"/>
      </defs>
      <use xlink:href="#DejaVuSans-54"/>
      <use xlink:href="#DejaVuSans-69" x="57.958984"/>
      <use xlink:href="#DejaVuSans-6d" x="85.742188"/>
      <use xlink:href="#DejaVuSans-65" x="183.154297"/>
     </g>
    </g>
   </g>
   <g id="matplotlib.axis_2">
    <g id="ytick_1">
     <g id="line2d_19">
      <path d="M 52.160938 165.96 
L 442.760938 165.96 
" clip-path="url(#p25d6de55bd)" style="fill: none; stroke: #b0b0b0; stroke-width: 0.8; stroke-linecap: square"/>
     </g>
     <g id="line2d_20">
      <defs>
       <path id="m4e8b0df5c7" d="M 0 0 
L -3.5 0 
" style="stroke: #000000; stroke-width: 0.8"/>
      </defs>
      <g>
       <use xlink:href="#m4e8b0df5c7" x="52.160938" y="165.96" style="stroke: #000000; stroke-width: 0.8"/>
      </g>
     </g>
     <g id="text_11">
      <!-- −1.0 -->
      <g transform="translate(20.878125 169.759219)scale(0.1 -0.1)">
       <defs>
        <path id="DejaVuSans-2212" d="M 678 2272 
L 4684 2272 
L 4684 1741 
L 678 1741 
L 678 2272 
z
" transform="scale(0.015625)"/>
        <path id="DejaVuSans-2e" d="M 684 794 
L 1344 794 
L 1344 0 
L 684 0 
L 684 794 
z
" transform="scale(0.015625)"/>
       </defs>
       <use xlink:href="#DejaVuSans-2212"/>
       <use xlink:href="#DejaVuSans-31" x="83.789062"/>
       <use xlink:href="#DejaVuSans-2e" x="147.412109"/>
       <use xlink:href="#DejaVuSans-30" x="179.199219"/>
      </g>
     </g>
    </g>
    <g id="ytick_2">
     <g id="line2d_21">
      <path d="M 52.160938 128.16 
L 442.760938 128.16 
" clip-path="url(#p25d6de55bd)" style="fill: none; stroke: #b0b0b0; stroke-width: 0.8; stroke-linecap: square"/>
     </g>
     <g id="line2d_22">
      <g>
       <use xlink:href="#m4e8b0df5c7" x="52.160938" y="128.16" style="stroke: #000000; stroke-width: 0.8"/>
      </g>
     </g>
     <g id="text_12">
      <!-- −0.5 -->
      <g transform="translate(20.878125 131.959219)scale(0.1 -0.1)">
       <use xlink:href="#DejaVuSans-2212"/>
       <use xlink:href="#DejaVuSans-30" x="83.789062"/>
       <use xlink:href="#DejaVuSans-2e" x="147.412109"/>
       <use xlink:href="#DejaVuSans-35" x="179.199219"/>
      </g>
     </g>
    </g>
    <g id="ytick_3">
     <g id="line2d_23">
      <path d="M 52.160938 90.36 
L 442.760938 90.36 
" clip-path="url(#p25d6de55bd)" style="fill: none; stroke: #b0b0b0; stroke-width: 0.8; stroke-linecap: square"/>
     </g>
     <g id="line2d_24">
      <g>
       <use xlink:href="#m4e8b0df5c7" x="52.160938" y="90.36" style="stroke: #000000; stroke-width: 0.8"/>
      </g>
     </g>
     <g id="text_13">
      <!-- 0.0 -->
      <g transform="translate(29.257813 94.159219)scale(0.1 -0.1)">
       <use xlink:href="#DejaVuSans-30"/>
       <use xlink:href="#DejaVuSans-2e" x="63.623047"/>
       <use xlink:href="#DejaVuSans-30" x="95.410156"/>
      </g>
     </g>
    </g>
    <g id="ytick_4">
     <g id="line2d_25">
      <path d="M 52.160938 52.56 
L 442.760938 52.56 
" clip-path="url(#p25d6de55bd)" style="fill: none; stroke: #b0b0b0; stroke-width: 0.8; stroke-linecap: square"/>
     </g>
     <g id="line2d_26">
      <g>
       <use xlink:href="#m4e8b0df5c7" x="52.160938" y="52.56" style="stroke: #000000; stroke-width: 0.8"/>
      </g>
     </g>
     <g id="text_14">
      <!-- 0.5 -->
      <g transform="translate(29.257813 56.359219)scale(0.1 -0.1)">
       <use xlink:href="#DejaVuSans-30"/>
       <use xlink:href="#DejaVuSans-2e" x="63.623047"/>
       <use xlink:href="#DejaVuSans-35" x="95.410156"/>
      </g>
     </g>
    </g>
    <g id="ytick_5">
     <g id="line2d_27">
      <path d="M 52.160938 14.76 
L 442.760938 14.76 
" clip-path="url(#p25d6de55bd)" style="fill: none; stroke: #b0b0b0; stroke-width: 0.8; stroke-linecap: square"/>
     </g>
     <g id="line2d_28">
      <g>
       <use xlink:href="#m4e8b0df5c7" x="52.160938" y="14.76" style="stroke: #000000; stroke-width: 0.8"/>
      </g>
     </g>
     <g id="text_15">
      <!-- 1.0 -->
      <g transform="translate(29.257813 18.559219)scale(0.1 -0.1)">
       <use xlink:href="#DejaVuSans-31"/>
       <use xlink:href="#DejaVuSans-2e" x="63.623047"/>
       <use xlink:href="#DejaVuSans-30" x="95.410156"/>
      </g>
     </g>
    </g>
    <g id="text_16">
     <!-- Samples -->
     <g transform="translate(14.798438 111.713125)rotate(-90)scale(0.1 -0.1)">
      <defs>
       <path id="DejaVuSans-53" d="M 3425 4513 
L 3425 3897 
Q 3066 4069 2747 4153 
Q 2428 4238 2131 4238 
Q 1616 4238 1336 4038 
Q 1056 3838 1056 3469 
Q 1056 3159 1242 3001 
Q 1428 2844 1947 2747 
L 2328 2669 
Q 3034 2534 3370 2195 
Q 3706 1856 3706 1288 
Q 3706 609 3251 259 
Q 2797 -91 1919 -91 
Q 1588 -91 1214 -16 
Q 841 59 441 206 
L 441 856 
Q 825 641 1194 531 
Q 1563 422 1919 422 
Q 2459 422 2753 634 
Q 3047 847 3047 1241 
Q 3047 1584 2836 1778 
Q 2625 1972 2144 2069 
L 1759 2144 
Q 1053 2284 737 2584 
Q 422 2884 422 3419 
Q 422 4038 858 4394 
Q 1294 4750 2059 4750 
Q 2388 4750 2728 4690 
Q 3069 4631 3425 4513 
z
" transform="scale(0.015625)"/>
       <path id="DejaVuSans-61" d="M 2194 1759 
Q 1497 1759 1228 1600 
Q 959 1441 959 1056 
Q 959 750 1161 570 
Q 1363 391 1709 391 
Q 2188 391 2477 730 
Q 2766 1069 2766 1631 
L 2766 1759 
L 2194 1759 
z
M 3341 1997 
L 3341 0 
L 2766 0 
L 2766 531 
Q 2569 213 2275 61 
Q 1981 -91 1556 -91 
Q 1019 -91 701 211 
Q 384 513 384 1019 
Q 384 1609 779 1909 
Q 1175 2209 1959 2209 
L 2766 2209 
L 2766 2266 
Q 2766 2663 2505 2880 
Q 2244 3097 1772 3097 
Q 1472 3097 1187 3025 
Q 903 2953 641 2809 
L 641 3341 
Q 956 3463 1253 3523 
Q 1550 3584 1831 3584 
Q 2591 3584 2966 3190 
Q 3341 2797 3341 1997 
z
" transform="scale(0.015625)"/>
       <path id="DejaVuSans-70" d="M 1159 525 
L 1159 -1331 
L 581 -1331 
L 581 3500 
L 1159 3500 
L 1159 2969 
Q 1341 3281 1617 3432 
Q 1894 3584 2278 3584 
Q 2916 3584 3314 3078 
Q 3713 2572 3713 1747 
Q 3713 922 3314 415 
Q 2916 -91 2278 -91 
Q 1894 -91 1617 61 
Q 1341 213 1159 525 
z
M 3116 1747 
Q 3116 2381 2855 2742 
Q 2594 3103 2138 3103 
Q 1681 3103 1420 2742 
Q 1159 2381 1159 1747 
Q 1159 1113 1420 752 
Q 1681 391 2138 391 
Q 2594 391 2855 752 
Q 3116 1113 3116 1747 
z
" transform="scale(0.015625)"/>
       <path id="DejaVuSans-6c" d="M 603 4863 
L 1178 4863 
L 1178 0 
L 603 0 
L 603 4863 
z
" transform="scale(0.015625)"/>
       <path id="DejaVuSans-73" d="M 2834 3397 
L 2834 2853 
Q 2591 2978 2328 3040 
Q 2066 3103 1784 3103 
Q 1356 3103 1142 2972 
Q 928 2841 928 2578 
Q 928 2378 1081 2264 
Q 1234 2150 1697 2047 
L 1894 2003 
Q 2506 1872 2764 1633 
Q 3022 1394 3022 966 
Q 3022 478 2636 193 
Q 2250 -91 1575 -91 
Q 1294 -91 989 -36 
Q 684 19 347 128 
L 347 722 
Q 666 556 975 473 
Q 1284 391 1588 391 
Q 1994 391 2212 530 
Q 2431 669 2431 922 
Q 2431 1156 2273 1281 
Q 2116 1406 1581 1522 
L 1381 1569 
Q 847 1681 609 1914 
Q 372 2147 372 2553 
Q 372 3047 722 3315 
Q 1072 3584 1716 3584 
Q 2034 3584 2315 3537 
Q 2597 3491 2834 3397 
z
" transform="scale(0.015625)"/>
      </defs>
      <use xlink:href="#DejaVuSans-53"/>
      <use xlink:href="#DejaVuSans-61" x="63.476562"/>
      <use xlink:href="#DejaVuSans-6d" x="124.755859"/>
      <use xlink:href="#DejaVuSans-70" x="222.167969"/>
      <use xlink:href="#DejaVuSans-6c" x="285.644531"/>
      <use xlink:href="#DejaVuSans-65" x="313.427734"/>
      <use xlink:href="#DejaVuSans-73" x="374.951172"/>
     </g>
    </g>
   </g>
   <g id="line2d_29">
    <path d="M 69.915483 14.76 
L 71.699859 15.356129 
L 73.484236 17.135113 
L 75.268612 20.068898 
L 77.052989 24.111215 
L 78.837365 29.198315 
L 80.621742 35.249972 
L 82.406118 42.170746 
L 84.190494 49.851494 
L 87.759247 66.998315 
L 93.112377 95.106963 
L 96.681129 113.721685 
L 100.249882 130.868506 
L 102.034259 138.549254 
L 103.818635 145.470028 
L 105.603012 151.521685 
L 107.387388 156.608785 
L 109.171764 160.651102 
L 110.956141 163.584887 
L 112.740517 165.363871 
L 114.524894 165.96 
L 116.30927 165.363871 
L 118.093646 163.584887 
L 119.878023 160.651102 
L 121.662399 156.608785 
L 123.446776 151.521685 
L 125.231152 145.470028 
L 127.015529 138.549254 
L 128.799905 130.868506 
L 132.368658 113.721685 
L 137.721787 85.613037 
L 141.29054 66.998315 
L 144.859293 49.851494 
L 146.643669 42.170746 
L 148.428046 35.249972 
L 150.212422 29.198315 
L 151.996799 24.111215 
L 153.781175 20.068898 
L 155.565551 17.135113 
L 157.349928 15.356129 
L 159.134304 14.76 
L 160.918681 15.356129 
L 162.703057 17.135113 
L 164.487434 20.068898 
L 166.27181 24.111215 
L 168.056186 29.198315 
L 169.840563 35.249972 
L 171.624939 42.170746 
L 173.409316 49.851494 
L 176.978069 66.998315 
L 182.331198 95.106963 
L 185.899951 113.721685 
L 189.468704 130.868506 
L 191.25308 138.549254 
L 193.037456 145.470028 
L 194.821833 151.521685 
L 196.606209 156.608785 
L 198.390586 160.651102 
L 200.174962 163.584887 
L 201.959339 165.363871 
L 203.743715 165.96 
L 205.528091 165.363871 
L 207.312468 163.584887 
L 209.096844 160.651102 
L 210.881221 156.608785 
L 212.665597 151.521685 
L 214.449974 145.470028 
L 216.23435 138.549254 
L 218.018726 130.868506 
L 221.587479 113.721685 
L 226.940609 85.613037 
L 230.509361 66.998315 
L 234.078114 49.851494 
L 235.862491 42.170746 
L 237.646867 35.249972 
L 239.431244 29.198315 
L 241.21562 24.111215 
L 242.999996 20.068898 
L 244.784373 17.135113 
L 246.568749 15.356129 
L 248.353126 14.76 
L 250.137502 15.356129 
L 251.921879 17.135113 
L 253.706255 20.068898 
L 255.490631 24.111215 
L 257.275008 29.198315 
L 259.059384 35.249972 
L 260.843761 42.170746 
L 262.628137 49.851494 
L 266.19689 66.998315 
L 271.550019 95.106963 
L 275.118772 113.721685 
L 278.687525 130.868506 
L 280.471901 138.549254 
L 282.256278 145.470028 
L 284.040654 151.521685 
L 285.825031 156.608785 
L 287.609407 160.651102 
L 289.393784 163.584887 
L 291.17816 165.363871 
L 292.962536 165.96 
L 294.746913 165.363871 
L 296.531289 163.584887 
L 298.315666 160.651102 
L 300.100042 156.608785 
L 301.884419 151.521685 
L 303.668795 145.470028 
L 305.453171 138.549254 
L 307.237548 130.868506 
L 310.806301 113.721685 
L 316.15943 85.613037 
L 319.728183 66.998315 
L 323.296936 49.851494 
L 325.081312 42.170746 
L 326.865689 35.249972 
L 328.650065 29.198315 
L 330.434441 24.111215 
L 332.218818 20.068898 
L 334.003194 17.135113 
L 335.787571 15.356129 
L 337.571947 14.76 
L 339.356324 15.356129 
L 341.1407 17.135113 
L 342.925076 20.068898 
L 344.709453 24.111215 
L 346.493829 29.198315 
L 348.278206 35.249972 
L 350.062582 42.170746 
L 351.846959 49.851494 
L 355.415711 66.998315 
L 360.768841 95.106963 
L 364.337594 113.721685 
L 367.906346 130.868506 
L 369.690723 138.549254 
L 371.475099 145.470028 
L 373.259476 151.521685 
L 375.043852 156.608785 
L 376.828229 160.651102 
L 378.612605 163.584887 
L 380.396981 165.363871 
L 382.181358 165.96 
L 383.965734 165.363871 
L 385.750111 163.584887 
L 387.534487 160.651102 
L 389.318863 156.608785 
L 391.10324 151.521685 
L 392.887616 145.470028 
L 394.671993 138.549254 
L 396.456369 130.868506 
L 400.025122 113.721685 
L 405.378251 85.613037 
L 408.947004 66.998315 
L 412.515757 49.851494 
L 414.300133 42.170746 
L 416.08451 35.249972 
L 417.868886 29.198315 
L 419.653263 24.111215 
L 421.437639 20.068898 
L 423.222016 17.135113 
L 425.006392 15.356129 
L 425.006392 15.356129 
" clip-path="url(#p25d6de55bd)" style="fill: none; stroke: #1f77b4; stroke-width: 1.5; stroke-linecap: square"/>
   </g>
   <g id="line2d_30">
    <path d="M 69.915483 161.912174 
L 71.699859 158.289098 
L 73.484236 153.594739 
L 75.268612 147.90313 
L 77.052989 141.304032 
L 78.837365 133.901516 
L 80.621742 125.812324 
L 84.190494 108.093017 
L 93.112377 61.509494 
L 94.896753 52.978887 
L 96.681129 45.037803 
L 98.465506 37.811477 
L 100.249882 31.413872 
L 102.034259 25.945884 
L 103.818635 21.493744 
L 105.603012 18.127666 
L 107.387388 15.900735 
L 109.171764 14.848072 
L 110.956141 14.986276 
L 112.740517 16.31317 
L 114.524894 18.807826 
L 116.30927 22.430902 
L 118.093646 27.125261 
L 119.878023 32.81687 
L 121.662399 39.415968 
L 123.446776 46.818484 
L 125.231152 54.907676 
L 128.799905 72.626983 
L 137.721787 119.210506 
L 139.506164 127.741113 
L 141.29054 135.682197 
L 143.074916 142.908523 
L 144.859293 149.306128 
L 146.643669 154.774116 
L 148.428046 159.226256 
L 150.212422 162.592334 
L 151.996799 164.819265 
L 153.781175 165.871928 
L 155.565551 165.733724 
L 157.349928 164.40683 
L 159.134304 161.912174 
L 160.918681 158.289098 
L 162.703057 153.594739 
L 164.487434 147.90313 
L 166.27181 141.304032 
L 168.056186 133.901516 
L 169.840563 125.812324 
L 173.409316 108.093017 
L 182.331198 61.509494 
L 184.115574 52.978887 
L 185.899951 45.037803 
L 187.684327 37.811477 
L 189.468704 31.413872 
L 191.25308 25.945884 
L 193.037456 21.493744 
L 194.821833 18.127666 
L 196.606209 15.900735 
L 198.390586 14.848072 
L 200.174962 14.986276 
L 201.959339 16.31317 
L 203.743715 18.807826 
L 205.528091 22.430902 
L 207.312468 27.125261 
L 209.096844 32.81687 
L 210.881221 39.415968 
L 212.665597 46.818484 
L 214.449974 54.907676 
L 218.018726 72.626983 
L 226.940609 119.210506 
L 228.724985 127.741113 
L 230.509361 135.682197 
L 232.293738 142.908523 
L 234.078114 149.306128 
L 235.862491 154.774116 
L 237.646867 159.226256 
L 239.431244 162.592334 
L 241.21562 164.819265 
L 242.999996 165.871928 
L 244.784373 165.733724 
L 246.568749 164.40683 
L 248.353126 161.912174 
L 250.137502 158.289098 
L 251.921879 153.594739 
L 253.706255 147.90313 
L 255.490631 141.304032 
L 257.275008 133.901516 
L 259.059384 125.812324 
L 262.628137 108.093017 
L 271.550019 61.509494 
L 273.334396 52.978887 
L 275.118772 45.037803 
L 276.903149 37.811477 
L 278.687525 31.413872 
L 280.471901 25.945884 
L 282.256278 21.493744 
L 284.040654 18.127666 
L 285.825031 15.900735 
L 287.609407 14.848072 
L 289.393784 14.986276 
L 291.17816 16.31317 
L 292.962536 18.807826 
L 294.746913 22.430902 
L 296.531289 27.125261 
L 298.315666 32.81687 
L 300.100042 39.415968 
L 301.884419 46.818484 
L 303.668795 54.907676 
L 307.237548 72.626983 
L 316.15943 119.210506 
L 317.943806 127.741113 
L 319.728183 135.682197 
L 321.512559 142.908523 
L 323.296936 149.306128 
L 325.081312 154.774116 
L 326.865689 159.226256 
L 328.650065 162.592334 
L 330.434441 164.819265 
L 332.218818 165.871928 
L 334.003194 165.733724 
L 335.787571 164.40683 
L 337.571947 161.912174 
L 339.356324 158.289098 
L 341.1407 153.594739 
L 342.925076 147.90313 
L 344.709453 141.304032 
L 346.493829 133.901516 
L 348.278206 125.812324 
L 351.846959 108.093017 
L 360.768841 61.509494 
L 362.553217 52.978887 
L 364.337594 45.037803 
L 366.12197 37.811477 
L 367.906346 31.413872 
L 369.690723 25.945884 
L 371.475099 21.493744 
L 373.259476 18.127666 
L 375.043852 15.900735 
L 376.828229 14.848072 
L 378.612605 14.986276 
L 380.396981 16.31317 
L 382.181358 18.807826 
L 383.965734 22.430902 
L 385.750111 27.125261 
L 387.534487 32.81687 
L 389.318863 39.415968 
L 391.10324 46.818484 
L 392.887616 54.907676 
L 396.456369 72.626983 
L 405.378251 119.210506 
L 407.162628 127.741113 
L 408.947004 135.682197 
L 410.731381 142.908523 
L 412.515757 149.306128 
L 414.300133 154.774116 
L 416.08451 159.226256 
L 417.868886 162.592334 
L 419.653263 164.819265 
L 421.437639 165.871928 
L 423.222016 165.733724 
L 425.006392 164.40683 
L 425.006392 164.40683 
" clip-path="url(#p25d6de55bd)" style="fill: none; stroke: #ff7f0e; stroke-width: 1.5; stroke-linecap: square"/>
   </g>
   <g id="line2d_31">
    <path d="M 69.915483 30.51784 
L 71.699859 36.779886 
L 73.484236 43.886923 
L 75.268612 51.726868 
L 78.837365 69.101311 
L 89.543624 124.526624 
L 91.328 132.709542 
L 93.112377 140.224583 
L 94.896753 146.953229 
L 96.681129 152.789366 
L 98.465506 157.640955 
L 100.249882 161.431483 
L 102.034259 164.101172 
L 103.818635 165.607918 
L 105.603012 165.927959 
L 107.387388 165.056249 
L 109.171764 163.006534 
L 110.956141 159.811139 
L 112.740517 155.520459 
L 114.524894 150.20216 
L 116.30927 143.940114 
L 118.093646 136.833077 
L 119.878023 128.993132 
L 123.446776 111.618689 
L 134.153034 56.193376 
L 135.937411 48.010458 
L 137.721787 40.495417 
L 139.506164 33.766771 
L 141.29054 27.930634 
L 143.074916 23.079045 
L 144.859293 19.288517 
L 146.643669 16.618828 
L 148.428046 15.112082 
L 150.212422 14.792041 
L 151.996799 15.663751 
L 153.781175 17.713466 
L 155.565551 20.908861 
L 157.349928 25.199541 
L 159.134304 30.51784 
L 160.918681 36.779886 
L 162.703057 43.886923 
L 164.487434 51.726868 
L 168.056186 69.101311 
L 178.762445 124.526624 
L 180.546821 132.709542 
L 182.331198 140.224583 
L 184.115574 146.953229 
L 185.899951 152.789366 
L 187.684327 157.640955 
L 189.468704 161.431483 
L 191.25308 164.101172 
L 193.037456 165.607918 
L 194.821833 165.927959 
L 196.606209 165.056249 
L 198.390586 163.006534 
L 200.174962 159.811139 
L 201.959339 155.520459 
L 203.743715 150.20216 
L 205.528091 143.940114 
L 207.312468 136.833077 
L 209.096844 128.993132 
L 212.665597 111.618689 
L 223.371856 56.193376 
L 225.156232 48.010458 
L 226.940609 40.495417 
L 228.724985 33.766771 
L 230.509361 27.930634 
L 232.293738 23.079045 
L 234.078114 19.288517 
L 235.862491 16.618828 
L 237.646867 15.112082 
L 239.431244 14.792041 
L 241.21562 15.663751 
L 242.999996 17.713466 
L 244.784373 20.908861 
L 246.568749 25.199541 
L 248.353126 30.51784 
L 250.137502 36.779886 
L 251.921879 43.886923 
L 253.706255 51.726868 
L 257.275008 69.101311 
L 267.981266 124.526624 
L 269.765643 132.709542 
L 271.550019 140.224583 
L 273.334396 146.953229 
L 275.118772 152.789366 
L 276.903149 157.640955 
L 278.687525 161.431483 
L 280.471901 164.101172 
L 282.256278 165.607918 
L 284.040654 165.927959 
L 285.825031 165.056249 
L 287.609407 163.006534 
L 289.393784 159.811139 
L 291.17816 155.520459 
L 292.962536 150.20216 
L 294.746913 143.940114 
L 296.531289 136.833077 
L 298.315666 128.993132 
L 301.884419 111.618689 
L 312.590677 56.193376 
L 314.375054 48.010458 
L 316.15943 40.495417 
L 317.943806 33.766771 
L 319.728183 27.930634 
L 321.512559 23.079045 
L 323.296936 19.288517 
L 325.081312 16.618828 
L 326.865689 15.112082 
L 328.650065 14.792041 
L 330.434441 15.663751 
L 332.218818 17.713466 
L 334.003194 20.908861 
L 335.787571 25.199541 
L 337.571947 30.51784 
L 339.356324 36.779886 
L 341.1407 43.886923 
L 342.925076 51.726868 
L 346.493829 69.101311 
L 357.200088 124.526624 
L 358.984464 132.709542 
L 360.768841 140.224583 
L 362.553217 146.953229 
L 364.337594 152.789366 
L 366.12197 157.640955 
L 367.906346 161.431483 
L 369.690723 164.101172 
L 371.475099 165.607918 
L 373.259476 165.927959 
L 375.043852 165.056249 
L 376.828229 163.006534 
L 378.612605 159.811139 
L 380.396981 155.520459 
L 382.181358 150.20216 
L 383.965734 143.940114 
L 385.750111 136.833077 
L 387.534487 128.993132 
L 391.10324 111.618689 
L 401.809498 56.193376 
L 403.593875 48.010458 
L 405.378251 40.495417 
L 407.162628 33.766771 
L 408.947004 27.930634 
L 410.731381 23.079045 
L 412.515757 19.288517 
L 414.300133 16.618828 
L 416.08451 15.112082 
L 417.868886 14.792041 
L 419.653263 15.663751 
L 421.437639 17.713466 
L 423.222016 20.908861 
L 425.006392 25.199541 
L 425.006392 25.199541 
" clip-path="url(#p25d6de55bd)" style="fill: none; stroke: #2ca02c; stroke-width: 1.5; stroke-linecap: square"/>
   </g>
   <g id="patch_3">
    <path d="M 52.160938 173.52 
L 52.160938 7.2 
" style="fill: none; stroke: #000000; stroke-width: 0.8; stroke-linejoin: miter; stroke-linecap: square"/>
   </g>
   <g id="patch_4">
    <path d="M 442.760938 173.52 
L 442.760938 7.2 
" style="fill: none; stroke: #000000; stroke-width: 0.8; stroke-linejoin: miter; stroke-linecap: square"/>
   </g>
   <g id="patch_5">
    <path d="M 52.160938 173.52 
L 442.760938 173.52 
" style="fill: none; stroke: #000000; stroke-width: 0.8; stroke-linejoin: miter; stroke-linecap: square"/>
   </g>
   <g id="patch_6">
    <path d="M 52.160938 7.2 
L 442.760938 7.2 
" style="fill: none; stroke: #000000; stroke-width: 0.8; stroke-linejoin: miter; stroke-linecap: square"/>
   </g>
  </g>
 </g>
 <defs>
  <clipPath id="p25d6de55bd">
   <rect x="52.160938" y="7.2" width="390.6" height="166.32"/>
  </clipPath>
 </defs>
</svg>
